<svg width="20" height="14" viewBox="0 0 20 14" fill="none" xmlns="http://www.w3.org/2000/svg">
<path d="M11.1796 0.5H2.99948C2.33657 0.5 1.70082 0.763337 1.23208 1.23208C0.763335 1.70082 0.5 2.33657 0.5 2.99948V11.1796C0.5 11.8425 0.763335 12.4782 1.23208 12.947C1.70082 13.4157 2.33657 13.6791 2.99948 13.6791H11.1796C11.8425 13.6791 12.4782 13.4157 12.947 12.947C13.4157 12.4782 13.6791 11.8425 13.6791 11.1796V2.99948C13.6791 2.33657 13.4157 1.70082 12.947 1.23208C12.4782 0.763337 11.8425 0.5 11.1796 0.5V0.5Z" fill="#246BFD"/>
<path d="M18.1059 2.85637C17.991 2.88101 17.8819 2.92727 17.7844 2.9927L15.8359 4.17882C15.5305 4.36632 15.2798 4.63078 15.1088 4.9457C14.9332 5.26731 14.8414 5.62793 14.8418 5.99434V8.18934C14.8416 8.55659 14.9338 8.91798 15.1099 9.24025C15.2817 9.55602 15.5337 9.82092 15.8404 10.0083L17.8037 11.1944C17.9308 11.2729 18.0727 11.3244 18.2206 11.3455C18.3677 11.366 18.5175 11.3556 18.6603 11.3148C18.8046 11.2731 18.9391 11.2028 19.0557 11.108C19.1739 11.011 19.2719 10.8917 19.3443 10.757C19.4429 10.5724 19.4944 10.3664 19.4942 10.1571V4.01067C19.4939 3.83257 19.4551 3.65664 19.3806 3.49487C19.3069 3.33585 19.1991 3.19503 19.0648 3.08246C18.9331 2.97232 18.7775 2.8945 18.6103 2.85523C18.4445 2.81545 18.2715 2.81584 18.1059 2.85637Z" fill="#246BFD"/>
<path d="M5.29027 11.3553C4.67979 11.3553 4.21284 11.1777 3.88942 10.8224C3.56601 10.4672 3.4043 9.9658 3.4043 9.31821V5.05774C3.4043 4.40863 3.56601 3.90684 3.88942 3.55237C4.21284 3.1979 4.67979 3.02029 5.29027 3.01953C5.8962 3.01953 6.36277 3.19715 6.68997 3.55237C7.01718 3.9076 7.17888 4.40939 7.1751 5.05774V9.31821C7.1751 9.9658 7.01339 10.4672 6.68997 10.8224C6.36656 11.1777 5.89999 11.3553 5.29027 11.3553ZM5.29027 10.1976C5.71821 10.1976 5.93255 9.93247 5.93331 9.40228V4.97594C5.93331 4.44575 5.71896 4.18065 5.29027 4.18065C4.86157 4.18065 4.64684 4.44575 4.64608 4.97594V9.39887C4.64608 9.93209 4.86081 10.1983 5.29027 10.1976Z" fill="white"/>
<path d="M9.52906 5.05807H8.23047V4.15485C8.51556 4.16307 8.80041 4.13172 9.07688 4.06168C9.27661 4.01335 9.45835 3.90888 9.60064 3.76061C9.7511 3.57464 9.86658 3.36293 9.94147 3.13574H10.7765V11.2397H9.52906V5.05807Z" fill="white"/>
</svg>
