<svg width="47" height="49" viewBox="0 0 47 49" fill="none" xmlns="http://www.w3.org/2000/svg">
<ellipse cx="23.5" cy="24.8486" rx="23.5" ry="24" fill="#334155" fill-opacity="0.3"/>
<path d="M11.499 24.8088C11.499 26.6213 13.2689 28.3133 16.0592 29.267C15.502 32.0721 15.9593 34.333 17.4869 35.214C19.057 36.1195 21.3962 35.4927 23.6164 33.552C25.7805 35.4144 27.9678 36.1473 29.4939 35.2638C31.0626 34.3557 31.5397 31.9415 30.9671 29.0488C33.8734 28.0879 35.499 26.6451 35.499 24.8088C35.499 23.0384 33.7259 21.5067 30.9732 20.5591C31.5897 17.5469 31.0674 15.3408 29.4766 14.4235C27.9429 13.5391 25.7302 14.3099 23.5342 16.2211C21.2497 14.1925 19.0588 13.5732 17.4696 14.4932C15.9374 15.3802 15.5002 17.6821 16.0592 20.5392C13.3631 21.4792 11.499 23.0455 11.499 24.8088Z" fill="white"/>
<path d="M30.3937 21.5C30.1725 21.4238 29.9434 21.3518 29.7075 21.2837C29.7463 21.1255 29.7819 20.9693 29.8135 20.8158C30.3329 18.2946 29.9933 16.2636 28.8337 15.5948C27.7218 14.9536 25.9034 15.6222 24.0668 17.2205C23.8902 17.3742 23.7131 17.5369 23.5361 17.7074C23.4181 17.5946 23.3004 17.4856 23.1829 17.3813C21.2582 15.6723 19.3289 14.9521 18.1704 15.6227C17.0596 16.2658 16.7306 18.1752 17.1981 20.5645C17.2433 20.7953 17.296 21.031 17.3557 21.2706C17.0827 21.3481 16.8191 21.4307 16.5669 21.5186C14.3103 22.3054 12.8691 23.5384 12.8691 24.8173C12.8691 26.1383 14.4162 27.4632 16.7666 28.2665C16.9521 28.3299 17.1446 28.3898 17.3429 28.4468C17.2785 28.7059 17.2225 28.9599 17.1755 29.2076C16.7297 31.5554 17.0779 33.4197 18.1857 34.0587C19.3301 34.7186 21.2506 34.0403 23.1208 32.4056C23.2686 32.2764 23.4169 32.1394 23.5655 31.9957C23.7581 32.1812 23.9504 32.3567 24.1417 32.5214C25.9532 34.0802 27.7423 34.7096 28.8491 34.0688C29.9923 33.407 30.3639 31.4044 29.8815 28.9678C29.8447 28.7817 29.8018 28.5916 29.7537 28.3981C29.8885 28.3582 30.0209 28.317 30.15 28.2742C32.5935 27.4647 34.1833 26.1559 34.1833 24.8173C34.1833 23.5337 32.6957 22.2924 30.3937 21.5Z" fill="#53C1DE"/>
<path d="M29.8614 27.4107C29.7448 27.4493 29.6253 27.4866 29.5034 27.5227C29.2337 26.6688 28.8696 25.7607 28.4241 24.8225C28.8492 23.9067 29.1992 23.0102 29.4614 22.1618C29.6794 22.2249 29.8911 22.2914 30.095 22.3616C32.0674 23.0406 33.2705 24.0445 33.2705 24.8181C33.2705 25.642 31.9711 26.7116 29.8614 27.4107ZM28.986 29.1453C29.1993 30.2228 29.2298 31.1969 29.0885 31.9584C28.9615 32.6427 28.7062 33.0989 28.3906 33.2816C27.7189 33.6704 26.2824 33.165 24.7333 31.8319C24.5557 31.6791 24.3768 31.5159 24.1973 31.3432C24.7979 30.6864 25.3981 29.9228 25.984 29.0747C27.0143 28.9833 27.9878 28.8338 28.8706 28.6297C28.9141 28.8051 28.9527 28.9772 28.986 29.1453ZM20.1333 33.2144C19.4771 33.4462 18.9544 33.4528 18.6384 33.2706C17.9661 32.8828 17.6866 31.386 18.0679 29.3781C18.1115 29.1482 18.1635 28.912 18.2234 28.6705C19.0965 28.8636 20.0629 29.0025 21.0957 29.0863C21.6855 29.9161 22.3031 30.6789 22.9254 31.3467C22.7894 31.478 22.654 31.603 22.5193 31.7207C21.6923 32.4436 20.8636 32.9564 20.1333 33.2144ZM17.0588 27.4056C16.0195 27.0504 15.1612 26.5887 14.5729 26.085C14.0442 25.6322 13.7773 25.1828 13.7773 24.8181C13.7773 24.0419 14.9344 23.052 16.8643 22.3792C17.0984 22.2975 17.3436 22.2206 17.5979 22.1483C17.8647 23.0159 18.2145 23.923 18.6367 24.8402C18.2091 25.7711 17.8542 26.6926 17.5849 27.5704C17.4035 27.5182 17.2279 27.4634 17.0588 27.4056ZM18.0894 20.3904C17.6888 18.3433 17.9549 16.799 18.6243 16.4115C19.3374 15.9987 20.9141 16.5873 22.576 18.0629C22.6823 18.1572 22.7889 18.2559 22.8958 18.3581C22.2766 19.023 21.6647 19.78 21.0801 20.605C20.0777 20.6979 19.1182 20.8471 18.2359 21.047C18.1805 20.8239 18.1313 20.6047 18.0894 20.3904ZM27.2834 22.6606C27.0725 22.2963 26.856 21.9406 26.6352 21.5947C27.3153 21.6806 27.9668 21.7947 28.5787 21.9344C28.395 22.5231 28.1661 23.1387 27.8965 23.7697C27.7032 23.4027 27.4987 23.0326 27.2834 22.6606ZM23.5341 19.0088C23.9541 19.4638 24.3747 19.9718 24.7884 20.523C24.3715 20.5033 23.9494 20.493 23.5239 20.493C23.1024 20.493 22.6835 20.503 22.2692 20.5224C22.6833 19.9763 23.1075 19.469 23.5341 19.0088ZM19.7608 22.6669C19.5501 23.0322 19.3494 23.4003 19.1591 23.769C18.894 23.1402 18.6671 22.5218 18.4818 21.9248C19.09 21.7887 19.7385 21.6774 20.4142 21.5931C20.1903 21.9422 19.972 22.3005 19.7608 22.6668V22.6669ZM20.4337 28.108C19.7355 28.0301 19.0773 27.9246 18.4693 27.7922C18.6575 27.1845 18.8894 26.5529 19.1602 25.9105C19.3509 26.279 19.5524 26.6473 19.7644 27.0134H19.7644C19.9804 27.3864 20.204 27.7517 20.4337 28.108ZM23.5593 30.6915C23.1277 30.2259 22.6973 29.7109 22.2769 29.1568C22.685 29.1728 23.1011 29.181 23.5239 29.181C23.9584 29.181 24.3878 29.1712 24.8105 29.1524C24.3955 29.7164 23.9764 30.2323 23.5593 30.6915ZM27.9052 25.8778C28.1901 26.5271 28.4303 27.1554 28.6209 27.7528C28.003 27.8938 27.3357 28.0073 26.6327 28.0917C26.854 27.7411 27.0724 27.3793 27.287 27.0071C27.5041 26.6306 27.7103 26.2536 27.9052 25.8778ZM26.4983 26.5522C26.1651 27.1299 25.8231 27.6814 25.4758 28.202C24.8433 28.2472 24.1899 28.2705 23.5239 28.2705C22.8606 28.2705 22.2155 28.2499 21.5942 28.2096C21.2329 27.6822 20.8834 27.1291 20.5524 26.5572H20.5524C20.2223 25.9869 19.9184 25.4118 19.643 24.8399C19.9183 24.2667 20.2214 23.6909 20.5497 23.1217L20.5496 23.1218C20.8787 22.551 21.2252 22.0006 21.5831 21.4765C22.217 21.4286 22.867 21.4036 23.5239 21.4036H23.5239C24.1838 21.4036 24.8346 21.4287 25.4683 21.4771C25.8208 21.9973 26.1649 22.546 26.4953 23.1168C26.8295 23.6941 27.1365 24.266 27.4141 24.827C27.1373 25.3975 26.831 25.9752 26.4983 26.5522ZM28.3766 16.3844C29.0904 16.796 29.3679 18.456 28.9195 20.6327C28.8909 20.7716 28.8587 20.9131 28.8237 21.0565C27.9394 20.8524 26.9792 20.7006 25.9738 20.6063C25.3882 19.7723 24.7813 19.0141 24.1721 18.3576C24.3359 18.2001 24.4994 18.0498 24.6623 17.9081C26.2358 16.5387 27.7065 15.998 28.3766 16.3844Z" fill="white"/>
<path d="M23.5234 22.9141C24.5745 22.9141 25.4267 23.7662 25.4267 24.8173C25.4267 25.8685 24.5745 26.7206 23.5234 26.7206C22.4723 26.7206 21.6201 25.8685 21.6201 24.8173C21.6201 23.7662 22.4723 22.9141 23.5234 22.9141Z" fill="#53C1DE"/>
</svg>
