<svg width="50" height="49" viewBox="0 0 50 49" fill="none" xmlns="http://www.w3.org/2000/svg">
<ellipse cx="25" cy="24.8486" rx="25" ry="24" fill="#334155" fill-opacity="0.3"/>
<path d="M32.2629 18.7559H18.4985C17.9816 18.7559 17.5625 19.1749 17.5625 19.6919V31.968C17.5625 32.4849 17.9816 32.904 18.4985 32.904H32.2629C32.7799 32.904 33.1989 32.4849 33.1989 31.968V19.6919C33.1989 19.1749 32.7799 18.7559 32.2629 18.7559Z" fill="#85C808"/>
<path d="M33.2153 18.7559H17.5508V25.2028H33.2153V18.7559Z" fill="#85C808"/>
<path d="M37.384 27.3735C37.3834 27.815 37.2076 28.2382 36.8952 28.5502C36.5828 28.8621 36.1594 29.0373 35.7179 29.0373C35.276 29.0373 34.8522 28.8618 34.5398 28.5493C34.2273 28.2369 34.0518 27.8131 34.0518 27.3712V19.8829C34.0518 19.441 34.2273 19.0173 34.5398 18.7048C34.8522 18.3923 35.276 18.2168 35.7179 18.2168C35.9367 18.2168 36.1534 18.2599 36.3555 18.3436C36.5576 18.4274 36.7413 18.5501 36.896 18.7048C37.0507 18.8595 37.1735 19.0432 37.2572 19.2453C37.3409 19.4475 37.384 19.6641 37.384 19.8829V27.3735Z" fill="#85C808"/>
<path d="M16.7161 27.3751C16.7154 27.8166 16.5396 28.2398 16.2272 28.5517C15.9148 28.8637 15.4914 29.0389 15.0499 29.0389C14.6084 29.0389 14.185 28.8637 13.8726 28.5517C13.5602 28.2398 13.3844 27.8166 13.3838 27.3751V19.8868C13.3838 19.445 13.5593 19.0212 13.8718 18.7087C14.1843 18.3962 14.608 18.2207 15.0499 18.2207C15.4918 18.2207 15.9156 18.3962 16.2281 18.7087C16.5405 19.0212 16.7161 19.445 16.7161 19.8868V27.3751Z" fill="#85C808"/>
<path d="M17.6152 17.8331C17.6152 17.8331 17.7884 11.2013 25.3843 11.2247C32.9077 11.2528 33.151 17.8331 33.151 17.8331H17.6152Z" fill="#85C808"/>
<path d="M21.9741 15.3828C22.4911 15.3828 22.9101 14.9637 22.9101 14.4468C22.9101 13.9298 22.4911 13.5107 21.9741 13.5107C21.4572 13.5107 21.0381 13.9298 21.0381 14.4468C21.0381 14.9637 21.4572 15.3828 21.9741 15.3828Z" fill="white"/>
<path d="M28.7935 15.3828C29.3104 15.3828 29.7295 14.9637 29.7295 14.4468C29.7295 13.9298 29.3104 13.5107 28.7935 13.5107C28.2765 13.5107 27.8574 13.9298 27.8574 14.4468C27.8574 14.9637 28.2765 15.3828 28.7935 15.3828Z" fill="white"/>
<path d="M21.7157 12.1162C21.7438 12.156 21.828 12.1443 21.9053 12.0882C21.9825 12.0343 22.0223 11.9595 21.9942 11.9197L20.5433 9.87211C20.5153 9.83233 20.431 9.84403 20.3538 9.90019C20.2766 9.95401 20.2368 10.0289 20.2649 10.0687L21.7157 12.1162Z" fill="#85C808"/>
<path d="M29.064 12.1162C29.0359 12.156 28.9517 12.1443 28.8745 12.0882C28.7972 12.0343 28.7575 11.9595 28.7832 11.9197L30.2341 9.87211C30.2621 9.83233 30.3464 9.84403 30.4236 9.90019C30.5008 9.95401 30.5406 10.0289 30.5125 10.0687L29.064 12.1162Z" fill="#85C808"/>
<path d="M30.2647 37.0642C30.2647 37.2834 30.2214 37.5004 30.1374 37.7029C30.0534 37.9053 29.9302 38.0892 29.775 38.244C29.6198 38.3988 29.4356 38.5214 29.2329 38.6048C29.0302 38.6883 28.8131 38.7309 28.5939 38.7303C28.152 38.7303 27.7282 38.5548 27.4157 38.2423C27.1033 37.9299 26.9277 37.5061 26.9277 37.0642V29.5759C26.9284 29.1344 27.1042 28.7112 27.4166 28.3993C27.729 28.0873 28.1524 27.9121 28.5939 27.9121C29.0358 27.9121 29.4595 28.0876 29.772 28.4001C30.0845 28.7126 30.26 29.1364 30.26 29.5782L30.2647 37.0642Z" fill="#85C808"/>
<path d="M23.8342 37.0636C23.8342 37.5055 23.6587 37.9292 23.3462 38.2417C23.0338 38.5542 22.61 38.7297 22.1681 38.7297C21.7262 38.7297 21.3024 38.5542 20.99 38.2417C20.6775 37.9292 20.502 37.5055 20.502 37.0636V29.5753C20.502 29.1334 20.6775 28.7096 20.99 28.3972C21.3024 28.0847 21.7262 27.9092 22.1681 27.9092C22.61 27.9092 23.0338 28.0847 23.3462 28.3972C23.6587 28.7096 23.8342 29.1334 23.8342 29.5753V37.0636Z" fill="#85C808"/>
</svg>
