<svg width="46" height="49" viewBox="0 0 46 49" fill="none" xmlns="http://www.w3.org/2000/svg">
<ellipse cx="23" cy="24.8486" rx="23" ry="24" fill="#334155" fill-opacity="0.3"/>
<path d="M31.0431 25.7705C31.0845 30.231 34.9561 31.7153 34.999 31.7343C34.9663 31.839 34.3804 33.8496 32.9593 35.9265C31.7308 37.722 30.4557 39.511 28.4472 39.548C26.4736 39.5844 25.839 38.3777 23.5826 38.3777C21.3269 38.3777 20.6218 39.511 18.7536 39.5844C16.8148 39.6578 15.3385 37.6428 14.0997 35.8538C11.5686 32.1944 9.63425 25.5132 12.2316 21.0032C13.5219 18.7636 15.8277 17.3454 18.3305 17.309C20.2343 17.2727 22.0313 18.5898 23.1951 18.5898C24.3582 18.5898 26.5419 17.0058 28.8376 17.2385C29.7986 17.2785 32.4962 17.6267 34.2285 20.1622C34.0889 20.2487 31.0096 22.0413 31.0431 25.7705V25.7705ZM27.3339 14.8175C28.3632 13.5715 29.056 11.8371 28.867 10.1113C27.3834 10.171 25.5893 11.1 24.5251 12.3452C23.5714 13.448 22.7361 15.2129 22.9615 16.9045C24.6152 17.0325 26.3046 16.0642 27.3339 14.8175" fill="white"/>
</svg>
