<svg width="48" height="49" viewBox="0 0 48 49" fill="none" xmlns="http://www.w3.org/2000/svg">
<circle cx="24" cy="24.8486" r="24" fill="#334155" fill-opacity="0.3"/>
<path d="M12 17.639C12 14.9928 14.1452 12.8477 16.7914 12.8477H31.2086C33.8548 12.8477 36 14.9928 36 17.639V32.0563C36 34.7025 33.8548 36.8477 31.2086 36.8477H16.7914C14.1452 36.8477 12 34.7025 12 32.0563V17.639Z" fill="#F7DF1E"/>
<path d="M18.3106 32.904L20.1472 31.7925C20.5016 32.4208 20.8239 32.9523 21.597 32.9523C22.3381 32.9523 22.8054 32.6624 22.8054 31.5348V23.8662H25.0608V31.5667C25.0608 33.9027 23.6915 34.9659 21.6937 34.9659C19.8895 34.9659 18.8422 34.0315 18.3105 32.9039" fill="black"/>
<path d="M26.2871 32.6614L28.1235 31.5982C28.607 32.3876 29.2353 32.9676 30.3468 32.9676C31.2813 32.9676 31.8772 32.5003 31.8772 31.8559C31.8772 31.0826 31.2651 30.8087 30.234 30.3578L29.6703 30.1159C28.0431 29.4233 26.9636 28.5534 26.9636 26.7168C26.9636 25.0252 28.2524 23.7363 30.2663 23.7363C31.7001 23.7363 32.7312 24.2358 33.4722 25.5407L31.7161 26.6684C31.3295 25.9757 30.9107 25.7019 30.2663 25.7019C29.6058 25.7019 29.1869 26.1207 29.1869 26.6684C29.1869 27.3451 29.6058 27.619 30.5723 28.0379L31.1361 28.2795C33.0533 29.1012 34.1327 29.9388 34.1327 31.8237C34.1327 33.8537 32.5378 34.9652 30.3952 34.9652C28.3009 34.9652 26.9476 33.9664 26.2871 32.6614" fill="black"/>
</svg>
