<svg width="48" height="49" viewBox="0 0 48 49" fill="none" xmlns="http://www.w3.org/2000/svg">
<circle cx="24" cy="24.8486" r="24" fill="#334155" fill-opacity="0.3"/>
<g clip-path="url(#clip0_32877_3256)">
<path d="M10.0801 21.9572C10.0801 24.0588 12.1322 26.0207 15.3676 27.1265C14.7215 30.3791 15.2518 33.0006 17.023 34.0221C18.8437 35.072 21.5559 34.3453 24.1303 32.095C26.6396 34.2544 29.1758 35.1043 30.9454 34.0799C32.7642 33.0269 33.3175 30.2276 32.6535 26.8735C36.0234 25.7593 37.9083 24.0864 37.9083 21.9572C37.9083 19.9044 35.8524 18.1284 32.6607 17.0296C33.3754 13.5369 32.7698 10.979 30.9252 9.91528C29.1469 8.88981 26.5813 9.78361 24.035 11.9996C21.386 9.6475 18.8457 8.92938 17.003 9.99618C15.2264 11.0246 14.7194 13.6937 15.3676 17.0065C12.2415 18.0965 10.0801 19.9126 10.0801 21.9572Z" fill="white"/>
<path d="M31.9849 18.121C31.7285 18.0328 31.4629 17.9493 31.1893 17.8703C31.2343 17.6868 31.2756 17.5057 31.3122 17.3277C31.9145 14.4044 31.5207 12.0493 30.1761 11.274C28.8869 10.5305 26.7784 11.3057 24.6489 13.1589C24.4441 13.3371 24.2387 13.5258 24.0335 13.7235C23.8967 13.5927 23.7602 13.4663 23.624 13.3453C21.3922 11.3637 19.1552 10.5287 17.8119 11.3063C16.5239 12.0519 16.1424 14.2659 16.6845 17.0363C16.7369 17.3039 16.7981 17.5772 16.8673 17.855C16.5507 17.9449 16.245 18.0407 15.9526 18.1426C13.3361 19.0549 11.665 20.4846 11.665 21.9675C11.665 23.4992 13.4589 25.0354 16.1842 25.9669C16.3993 26.0404 16.6224 26.1099 16.8524 26.1759C16.7778 26.4764 16.7128 26.7709 16.6583 27.0581C16.1414 29.7804 16.5451 31.9421 17.8297 32.683C19.1566 33.4482 21.3835 32.6617 23.5519 30.7662C23.7233 30.6164 23.8953 30.4575 24.0676 30.291C24.2909 30.506 24.5139 30.7096 24.7357 30.9005C26.8361 32.7079 28.9106 33.4378 30.194 32.6948C31.5196 31.9274 31.9504 29.6053 31.3911 26.78C31.3484 26.5642 31.2986 26.3438 31.2428 26.1195C31.3992 26.0732 31.5527 26.0255 31.7024 25.9759C34.5356 25.0372 36.379 23.5196 36.379 21.9675C36.379 20.4792 34.6541 19.0399 31.9849 18.121Z" fill="#53C1DE"/>
<path d="M31.3713 24.9731C31.2362 25.0178 31.0975 25.0611 30.9562 25.103C30.6434 24.1128 30.2213 23.0599 29.7047 21.9721C30.1977 20.9101 30.6035 19.8707 30.9075 18.8869C31.1603 18.9601 31.4057 19.0372 31.6422 19.1187C33.9291 19.906 35.3242 21.07 35.3242 21.9669C35.3242 22.9223 33.8176 24.1625 31.3713 24.9731ZM30.3563 26.9844C30.6036 28.2337 30.6389 29.3632 30.4751 30.2462C30.3279 31.0396 30.0319 31.5686 29.6659 31.7805C28.887 32.2313 27.2215 31.6453 25.4252 30.0995C25.2193 29.9224 25.0119 29.7331 24.8038 29.5329C25.5002 28.7713 26.1961 27.8859 26.8754 26.9026C28.0701 26.7966 29.1989 26.6232 30.2225 26.3866C30.2729 26.59 30.3177 26.7894 30.3563 26.9844ZM20.0915 31.7026C19.3306 31.9713 18.7245 31.979 18.3581 31.7678C17.5786 31.3181 17.2545 29.5825 17.6966 27.2544C17.7472 26.9877 17.8075 26.7139 17.8769 26.4339C18.8893 26.6578 20.0098 26.8189 21.2074 26.9159C21.8913 27.8782 22.6073 28.7626 23.329 29.537C23.1713 29.6892 23.0142 29.8341 22.8581 29.9707C21.8992 30.8088 20.9383 31.4035 20.0915 31.7026ZM16.5266 24.9673C15.3215 24.5554 14.3263 24.02 13.6441 23.4359C13.0312 22.911 12.7217 22.3898 12.7217 21.9669C12.7217 21.067 14.0633 19.9192 16.301 19.139C16.5725 19.0443 16.8568 18.9551 17.1517 18.8713C17.461 19.8773 17.8666 20.929 18.3562 21.9926C17.8603 23.072 17.4489 24.1405 17.1366 25.1583C16.9263 25.0978 16.7226 25.0342 16.5266 24.9673ZM17.7216 16.833C17.2571 14.4593 17.5656 12.6687 18.3418 12.2194C19.1686 11.7407 20.9969 12.4232 22.9238 14.1342C23.047 14.2436 23.1707 14.358 23.2947 14.4765C22.5766 15.2475 21.8671 16.1253 21.1893 17.0818C20.027 17.1895 18.9144 17.3626 17.8915 17.5943C17.8271 17.3356 17.7702 17.0815 17.7216 16.833ZM28.3821 19.4653C28.1375 19.0429 27.8865 18.6305 27.6305 18.2293C28.4191 18.329 29.1746 18.4614 29.884 18.6233C29.671 19.3059 29.4055 20.0197 29.093 20.7514C28.8689 20.3258 28.6318 19.8966 28.3821 19.4653ZM24.0347 15.231C24.5217 15.7586 25.0094 16.3476 25.4891 16.9867C25.0057 16.9639 24.5163 16.952 24.0229 16.952C23.5342 16.952 23.0485 16.9636 22.5681 16.986C23.0483 16.3529 23.5402 15.7646 24.0347 15.231ZM19.6596 19.4726C19.4153 19.8962 19.1826 20.323 18.9619 20.7506C18.6545 20.0214 18.3914 19.3044 18.1766 18.6121C18.8817 18.4543 19.6337 18.3253 20.4172 18.2275C20.1576 18.6323 19.9045 19.0478 19.6596 19.4725V19.4726ZM20.4397 25.7816C19.6302 25.6913 18.867 25.569 18.162 25.4155C18.3803 24.7108 18.6491 23.9785 18.9631 23.2337C19.1843 23.6609 19.418 24.0879 19.6637 24.5124H19.6638C19.9141 24.9449 20.1735 25.3685 20.4397 25.7816ZM24.0639 28.7773C23.5636 28.2374 23.0644 27.6402 22.577 26.9978C23.0502 27.0163 23.5326 27.0258 24.0229 27.0258C24.5267 27.0258 25.0247 27.0145 25.5148 26.9927C25.0335 27.6466 24.5476 28.2448 24.0639 28.7773ZM29.1031 23.1957C29.4334 23.9486 29.7119 24.6771 29.933 25.3698C29.2164 25.5332 28.4428 25.6649 27.6276 25.7627C27.8842 25.3562 28.1374 24.9367 28.3863 24.5052C28.638 24.0686 28.8771 23.6314 29.1031 23.1957ZM27.4718 23.9777C27.0854 24.6476 26.6888 25.287 26.2862 25.8906C25.5528 25.9431 24.7952 25.9701 24.0229 25.9701C23.2539 25.9701 22.5058 25.9462 21.7854 25.8994C21.3665 25.2879 20.9612 24.6466 20.5774 23.9835H20.5775C20.1946 23.3222 19.8423 22.6554 19.523 21.9923C19.8422 21.3276 20.1936 20.66 20.5743 19.9999L20.5742 20.0001C20.9558 19.3382 21.3575 18.7 21.7725 18.0923C22.5075 18.0368 23.2612 18.0078 24.0229 18.0078H24.0229C24.7881 18.0078 25.5427 18.037 26.2775 18.093C26.6862 18.6963 27.0851 19.3324 27.4683 19.9943C27.8558 20.6637 28.2118 21.3269 28.5337 21.9773C28.2127 22.6388 27.8576 23.3087 27.4718 23.9777ZM29.6497 12.188C30.4773 12.6652 30.7991 14.59 30.2792 17.114C30.246 17.275 30.2086 17.4391 30.1681 17.6053C29.1427 17.3687 28.0293 17.1927 26.8636 17.0833C26.1846 16.1163 25.4808 15.2371 24.7745 14.476C24.9644 14.2933 25.154 14.1191 25.3429 13.9547C27.1674 12.3668 28.8727 11.7399 29.6497 12.188Z" fill="white"/>
<path d="M24.0233 19.7598C25.2421 19.7598 26.2302 20.7478 26.2302 21.9666C26.2302 23.1854 25.2421 24.1735 24.0233 24.1735C22.8045 24.1735 21.8164 23.1854 21.8164 21.9666C21.8164 20.7478 22.8045 19.7598 24.0233 19.7598Z" fill="#53C1DE"/>
</g>
<path d="M19.1379 36.1598H18.4041V38.9359H18.3683L16.4512 36.1598H15.791V40.2325H16.5288V37.4583H16.5626L18.4816 40.2325H19.1379V36.1598Z" fill="#53C1DE"/>
<path d="M20.789 40.2941C21.2682 40.2941 21.5546 40.0694 21.6858 39.8129H21.7097V40.2325H22.4017V38.1882C22.4017 37.3808 21.7435 37.1382 21.1608 37.1382C20.5185 37.1382 20.0253 37.4245 19.8662 37.9814L20.5384 38.0768C20.61 37.868 20.8128 37.689 21.1648 37.689C21.4989 37.689 21.6819 37.86 21.6819 38.1603V38.1723C21.6819 38.3791 21.4651 38.389 20.9262 38.4467C20.3336 38.5103 19.7668 38.6873 19.7668 39.3754C19.7668 39.976 20.2063 40.2941 20.789 40.2941ZM20.9759 39.7652C20.6756 39.7652 20.4608 39.6279 20.4608 39.3635C20.4608 39.087 20.7015 38.9717 21.0236 38.926C21.2125 38.9001 21.5904 38.8524 21.6838 38.7768V39.1368C21.6838 39.4768 21.4094 39.7652 20.9759 39.7652Z" fill="#53C1DE"/>
<path d="M24.6509 37.1779H24.0483V36.4461H23.3284V37.1779H22.8949V37.7348H23.3284V39.4331C23.3245 40.0078 23.7421 40.2902 24.283 40.2743C24.4878 40.2683 24.629 40.2285 24.7066 40.2027L24.5853 39.6399C24.5455 39.6498 24.464 39.6677 24.3745 39.6677C24.1935 39.6677 24.0483 39.6041 24.0483 39.3137V37.7348H24.6509V37.1779Z" fill="#53C1DE"/>
<path d="M25.2529 40.2325H25.9728V37.1779H25.2529V40.2325ZM25.6149 36.7444C25.8436 36.7444 26.0305 36.5694 26.0305 36.3547C26.0305 36.1379 25.8436 35.9629 25.6149 35.9629C25.3842 35.9629 25.1973 36.1379 25.1973 36.3547C25.1973 36.5694 25.3842 36.7444 25.6149 36.7444Z" fill="#53C1DE"/>
<path d="M29.4415 37.1779H28.6759L27.9719 39.447H27.9401L27.2381 37.1779H26.4705L27.5583 40.2325H28.3537L29.4415 37.1779Z" fill="#53C1DE"/>
<path d="M31.188 40.2922C31.9 40.2922 32.3892 39.9441 32.5164 39.4132L31.8443 39.3376C31.7468 39.5961 31.5082 39.7314 31.198 39.7314C30.7326 39.7314 30.4244 39.4251 30.4184 38.9021H32.5463V38.6814C32.5463 37.6095 31.902 37.1382 31.1502 37.1382C30.2752 37.1382 29.7045 37.7805 29.7045 38.7231C29.7045 39.6816 30.2673 40.2922 31.188 40.2922ZM30.4204 38.4169C30.4423 38.0271 30.7306 37.699 31.1602 37.699C31.5738 37.699 31.8522 38.0012 31.8562 38.4169H30.4204Z" fill="#53C1DE"/>
<defs>
<clipPath id="clip0_32877_3256">
<rect width="28" height="25.1563" fill="white" transform="translate(9.99902 9.40625)"/>
</clipPath>
</defs>
</svg>
